PathFileType	4	(X/Y/Z)	E:\3-PhD\Data\MocapData\ElaboratedData\009\pre\dynamicElaborations\RunA2\RunA2.trc
DataRate	CameraRate	NumFrames	NumMarkers	Units	OrigDataRate	DataStartFrame
200	200	4	54	mm	200	289
Frame#	Time	FHD			LBHD			RBHD			C7			T10			CLAV			LSHO			LUUPA			LMUPA			LDUPA			LLEP			LMEP			LRAD			LUL			LRFIN			RSHO			RUPA1			RMUPA			RDUPA			RLEP			RMEP			RRAD			RUL			RUFIN			RASI			USACR			LSACR			RSACR			LTHI1			LTHI2			LTHI3			LTHI4			LTIB1			LTIB2			LTIB3			LTIB4			LLMAL			LHEE			LMT1			LMT2			RTHI			RTHI2			RTHI3			RTHI4			RLFC			RTIB1			RTIB2			RTIB3			RTIB4			RLMAL			RHEE			RMT1			RMT2			RMT5		
		X1	Y1	Z1	X2	Y2	Z2	X3	Y3	Z3	X4	Y4	Z4	X5	Y5	Z5	X6	Y6	Z6	X7	Y7	Z7	X8	Y8	Z8	X9	Y9	Z9	X10	Y10	Z10	X11	Y11	Z11	X12	Y12	Z12	X13	Y13	Z13	X14	Y14	Z14	X15	Y15	Z15	X16	Y16	Z16	X17	Y17	Z17	X18	Y18	Z18	X19	Y19	Z19	X20	Y20	Z20	X21	Y21	Z21	X22	Y22	Z22	X23	Y23	Z23	X24	Y24	Z24	X25	Y25	Z25	X26	Y26	Z26	X27	Y27	Z27	X28	Y28	Z28	X29	Y29	Z29	X30	Y30	Z30	X31	Y31	Z31	X32	Y32	Z32	X33	Y33	Z33	X34	Y34	Z34	X35	Y35	Z35	X36	Y36	Z36	X37	Y37	Z37	X38	Y38	Z38	X39	Y39	Z39	X40	Y40	Z40	X41	Y41	Z41	X42	Y42	Z42	X43	Y43	Z43	X44	Y44	Z44	X45	Y45	Z45	X46	Y46	Z46	X47	Y47	Z47	X48	Y48	Z48	X49	Y49	Z49	X50	Y50	Z50	X51	Y51	Z51	X52	Y52	Z52	X53	Y53	Z53	X54	Y54	Z54	

303	1.510000	-444.178490	1477.225625	-35.514646	-644.458588	1467.865610	-15.156487	-545.568894	1468.937495	65.323510	-677.242336	1358.091068	26.954942	-884.106241	1070.194530	73.882587	-590.865084	1212.094701	2.354957	-636.369267	1263.193355	-139.469158	-800.605953	1166.733444	-221.997871	-798.154286	1118.950393	-208.506895	-852.986800	1122.921246	-234.029650	-952.335872	1060.957645	-245.485161	-984.664990	1081.510009	-179.812408	-1033.709636	821.303795	-168.517223	-1092.548475	837.338509	-210.683467	-1054.508382	742.654954	-182.403225	-575.082262	1290.335730	171.579703	-615.381433	1173.335276	301.378163	-591.413257	1133.639384	298.620371	-626.127016	1123.230930	348.990790	-638.495459	999.175989	404.917129	-690.375583	968.260150	364.583096	-449.168738	937.525080	241.496633	-443.466430	884.310408	285.485364	-372.093444	944.199192	254.386753	-711.419441	900.394342	173.966993	-918.581089	973.825189	100.172858	-930.363018	935.830559	84.903096	-910.137111	952.589396	138.074850	-767.325035	657.079965	-120.069853	-696.892751	636.189987	-164.726687	-669.971391	675.407228	-172.595687	-665.195970	583.457114	-163.088310	-533.060314	397.777703	-80.755228	-618.709459	383.902058	-61.169591	-578.959376	368.942288	-58.877254	-579.470226	329.090206	17.124444	-667.443033	254.411732	125.912482	-705.643212	278.805274	219.124244	-525.948627	175.912264	137.365293	-554.587087	162.123850	101.739661	-712.459439	702.855337	336.030263	-669.437492	654.794036	344.826356	-638.943280	652.552413	329.822316	-690.878054	573.172032	364.910510	-658.514195	468.912350	386.967611	-683.740562	255.306683	437.905404	-760.133328	229.220810	510.888520	-725.549952	204.097918	492.050621	-744.634737	151.362350	483.601658	-819.640210	105.956870	565.761436	-900.504893	54.213129	555.964745	-684.825083	57.167137	486.194419	-674.805212	57.488811	525.868213	-699.987752	35.124086	590.386153	
304	1.515000	-420.219559	1475.324165	-46.512217	-620.508219	1465.941771	-24.507098	-520.891228	1466.869333	55.053169	-652.414597	1356.090804	18.607669	-858.759586	1068.001104	67.552240	-566.675207	1209.641865	-7.881188	-615.512006	1260.646705	-149.170643	-784.003607	1168.712568	-227.917159	-781.945681	1120.455911	-215.881977	-837.699772	1126.397319	-239.235589	-938.282829	1065.666698	-248.690057	-968.362447	1085.704187	-182.020016	-1017.154922	825.988678	-169.299698	-1077.305095	841.940315	-209.694425	-1038.204141	747.343704	-182.362026	-546.043012	1289.191961	160.249931	-580.450409	1169.885789	289.311071	-556.008797	1130.637330	285.348964	-588.660785	1118.698768	335.860708	-597.428461	993.236204	390.336539	-649.914069	962.030975	350.543142	-412.229736	943.341459	218.825164	-402.753993	889.248683	260.854895	-335.244740	952.900173	229.178094	-686.094528	899.278199	170.197297	-893.398972	971.734978	93.848127	-904.984777	933.648739	78.569417	-885.283826	950.668362	131.868637	-742.221024	656.039783	-124.538694	-671.876200	637.346804	-170.317864	-646.476343	677.425078	-178.834138	-638.399006	585.682505	-169.015958	-495.341337	401.827102	-90.721687	-579.450112	383.144300	-68.848547	-538.955511	370.319217	-68.120679	-534.781559	329.288163	7.138904	-615.174738	248.368603	117.806934	-652.011733	269.851174	212.134776	-469.626012	176.891686	124.577883	-498.337649	162.016766	89.673254	-692.069698	701.817095	333.354732	-650.458491	652.687865	342.586428	-620.082163	649.497494	327.593071	-674.132455	572.052594	363.958532	-645.157231	466.541224	386.927269	-677.298767	253.538432	438.924126	-754.886304	229.949529	511.550014	-720.861262	203.839124	493.191439	-741.560881	151.392959	484.257443	-817.911517	108.199256	565.781312	-900.194443	57.826308	556.354410	-684.308279	57.107546	486.216725	-674.452401	57.165022	525.884732	-699.962186	35.101174	590.585350	
305	1.520000	-396.200478	1473.964380	-57.480090	-596.508351	1464.723592	-34.154395	-496.289488	1465.325263	44.605253	-627.671981	1354.593068	9.912938	-833.159231	1066.134267	61.112619	-542.508898	1207.960710	-18.573145	-594.845622	1258.946745	-159.148443	-767.192248	1171.395735	-234.030363	-765.565580	1122.713984	-223.494889	-822.112856	1130.533013	-244.624499	-923.902595	1070.997614	-252.005098	-951.689252	1090.450328	-184.363450	-999.563968	831.014297	-170.402926	-1061.071352	846.767222	-208.913370	-1020.688102	752.326584	-182.612742	-517.224269	1288.703790	148.320655	-546.027169	1167.325170	276.481192	-521.172651	1128.536508	271.393469	-551.917409	1115.164988	322.018422	-557.257715	988.475792	374.796630	-610.250466	956.984243	335.438556	-376.744592	950.302391	195.631427	-363.588680	895.574696	235.544157	-300.022805	962.829752	203.409806	-660.499696	898.522141	166.107190	-867.897551	970.035365	87.440799	-879.342645	931.893605	72.100288	-860.143832	949.067758	125.542591	-717.184944	655.087903	-129.058808	-646.958939	638.344427	-175.793820	-623.035577	679.177823	-184.973378	-611.831860	587.748349	-174.690353	-457.975312	405.771798	-100.539477	-540.193135	382.219266	-76.554428	-499.083066	371.620787	-77.381783	-490.194177	329.648622	-3.065120	-562.643278	242.723034	109.085943	-598.090912	261.380708	204.386312	-413.436994	178.461308	111.438335	-442.110130	162.474559	77.180750	-672.049025	700.960671	330.429282	-632.031158	650.717777	340.204254	-601.762426	646.572003	325.345646	-658.176119	571.193878	362.692857	-632.874925	464.620524	386.780565	-671.244259	252.367190	439.679803	-749.814489	231.206802	512.048172	-716.353635	204.153195	494.096185	-738.519688	152.019512	484.794105	-815.936494	110.872111	565.640849	-899.713854	62.192269	556.805431	-683.724583	56.972053	486.258805	-674.010093	56.741654	525.851083	-699.892498	35.095730	590.764984	
306	1.525000	-372.118865	1473.151252	-68.467941	-572.450278	1464.212755	-44.139500	-471.753314	1464.316853	33.950899	-603.016023	1353.585924	0.858426	-807.265263	1064.592826	54.635543	-518.330413	1207.026368	-29.738322	-574.330042	1258.076426	-169.411844	-750.115702	1174.700303	-240.326797	-748.951774	1125.653050	-231.288542	-806.161352	1135.218106	-250.166569	-909.120033	1076.841307	-255.383350	-934.591947	1095.673204	-186.810032	-980.969372	836.322648	-171.853162	-1043.855489	851.782917	-208.368999	-1002.035917	757.545534	-183.208347	-488.682403	1288.846925	135.821972	-512.180059	1165.613112	262.960025	-486.953750	1127.299838	256.817685	-515.952324	1112.596524	307.554318	-518.014590	984.844853	358.419777	-571.444546	953.068179	319.427272	-342.773057	958.268376	172.069246	-326.053259	903.138528	209.727595	-266.481230	973.814131	177.246120	-634.607915	898.036425	161.726601	-842.033513	968.734230	81.037341	-853.402288	930.565880	65.616143	-834.639746	947.820017	119.193006	-692.177934	654.241601	-133.643626	-622.089966	639.163093	-181.177034	-599.569582	680.636650	-191.044376	-585.459531	589.611909	-180.123293	-420.992964	409.568097	-110.225902	-500.973641	381.133633	-84.306846	-459.390891	372.832089	-86.683168	-445.771245	330.168924	-13.498201	-509.993404	237.539335	99.711719	-544.042905	253.497932	195.840810	-357.534049	180.558539	97.969119	-386.067406	163.452262	64.281877	-652.404437	700.253834	327.239114	-614.165775	648.855804	337.649160	-584.006019	643.748069	323.048724	-643.018999	570.578675	361.043270	-621.678664	463.189742	386.466625	-665.537845	251.794212	440.088747	-744.859167	232.995154	512.343162	-711.975434	205.031781	494.706347	-735.475162	153.242920	485.185195	-813.700039	113.967444	565.369088	-899.014024	67.299421	557.330462	-683.126833	56.775956	486.361554	-673.485139	56.266827	525.815247	-699.770355	35.142469	590.933423	
